<svg viewBox="0 0 384 164" fill="none" xmlns="http://www.w3.org/2000/svg">
   <path d="M305.93 8.72501L301.866 18.8705C295.463 20.2111 289.507 22.7178 284.207 26.1811L274.173 21.8799L264.88 31.1735L269.181 41.2072C265.711 46.5069 263.211 52.4629 261.87 58.8658L251.725 62.9295V76.0705L261.87 80.1342C263.211 86.5371 265.718 92.4931 269.181 97.7928L264.88 107.827L274.173 117.12L284.207 112.819C289.507 116.289 295.463 118.789 301.866 120.13L305.93 130.275H319.07L323.134 120.13C329.537 118.789 335.493 116.282 340.793 112.819L350.827 117.12L360.12 107.827L355.819 97.7928C359.289 92.4931 361.789 86.5371 363.13 80.1342L373.275 76.0705V62.9295L363.13 58.8658C361.789 52.4629 359.282 46.5069 355.819 41.2072L360.12 31.1735L350.827 21.8799L340.793 26.1811C335.493 22.7108 329.537 20.2111 323.134 18.8705L319.07 8.72501H305.93ZM308.345 12.3H316.655L320.488 21.9008L321.458 22.0754C328.12 23.3322 334.306 25.9437 339.704 29.6374L340.513 30.182L350.01 26.1182L355.882 31.9904L351.811 41.4865L352.363 42.2965C356.056 47.6939 358.668 53.8733 359.918 60.5416L360.099 61.5121L369.7 65.3455V73.6545L360.099 77.4879L359.925 78.4585C358.668 85.1197 356.056 91.3061 352.363 96.7035L351.818 97.5135L355.882 107.01L350.01 112.882L340.513 108.811L339.704 109.363C334.306 113.056 328.127 115.668 321.458 116.918L320.488 117.099L316.655 126.7H308.345L304.512 117.099L303.542 116.925C296.88 115.668 290.694 113.056 285.296 109.363L284.487 108.818L274.99 112.882L269.118 107.01L273.189 97.5135L272.637 96.7035C268.944 91.3061 266.332 85.1267 265.082 78.4585L264.901 77.4879L255.3 73.6545V65.3455L264.901 61.5121L265.075 60.5416C266.332 53.8803 268.944 47.6939 272.637 42.2965L273.182 41.4865L269.118 31.9904L274.99 26.1182L284.487 30.189L285.296 29.6374C290.694 25.9437 296.873 23.3322 303.542 22.0824L304.512 21.9008L308.345 12.3ZM312.5 35.5375C311.515 35.5375 310.712 36.3405 310.712 37.325C310.712 38.3095 311.515 39.1125 312.5 39.1125C313.485 39.1125 314.287 38.3095 314.287 37.325C314.287 36.3405 313.485 35.5375 312.5 35.5375ZM304.184 36.6337C304.142 36.6337 304.1 36.6337 304.065 36.6337C303.94 36.6477 303.828 36.6617 303.709 36.6966C302.753 36.9549 302.187 37.9325 302.445 38.8891C302.704 39.8387 303.681 40.4043 304.631 40.1459C305.587 39.8945 306.153 38.917 305.902 37.9604C305.692 37.1854 304.994 36.6407 304.184 36.6337ZM320.816 36.6337C320.013 36.6407 319.308 37.1854 319.098 37.9604C318.847 38.917 319.413 39.8945 320.369 40.1459C321.319 40.4043 322.296 39.8387 322.555 38.8891C322.813 37.9325 322.247 36.9549 321.291 36.6966C321.137 36.6547 320.977 36.6337 320.816 36.6337ZM296.371 39.8457C296.07 39.8526 295.777 39.9364 295.519 40.09C295.107 40.3205 294.807 40.7115 294.681 41.1723C294.562 41.6332 294.625 42.1219 294.862 42.5269C295.1 42.9389 295.491 43.2391 295.952 43.3648C296.406 43.4835 296.894 43.4207 297.306 43.1833C298.158 42.6875 298.451 41.5982 297.956 40.7394C297.634 40.1738 297.027 39.8317 296.371 39.8457ZM328.504 39.8526C327.896 39.8806 327.345 40.2157 327.037 40.7394C326.8 41.1514 326.737 41.6401 326.856 42.101C326.982 42.5618 327.282 42.9528 327.694 43.1902C328.546 43.679 329.642 43.3857 330.131 42.5269C330.626 41.6751 330.333 40.5858 329.481 40.09C329.181 39.9155 328.846 39.8387 328.504 39.8526ZM289.772 44.9568C289.29 44.9568 288.823 45.1453 288.48 45.4805C287.789 46.1787 287.789 47.3169 288.48 48.0151C289.179 48.7064 290.317 48.7064 291.015 48.0151C291.706 47.3169 291.706 46.1787 291.015 45.4805C290.68 45.1523 290.24 44.9638 289.772 44.9568ZM335.277 44.9568C334.795 44.9498 334.327 45.1383 333.985 45.4805C333.287 46.1787 333.287 47.3169 333.985 48.0151C334.683 48.7064 335.814 48.7064 336.513 48.0151C337.211 47.3169 337.211 46.1787 336.513 45.4805C336.184 45.1523 335.744 44.9708 335.277 44.9568ZM340.318 51.625C340.018 51.632 339.724 51.7158 339.466 51.8624C339.054 52.0998 338.754 52.4908 338.635 52.9517C338.51 53.4055 338.572 53.8943 338.81 54.3063C339.306 55.1581 340.402 55.4514 341.254 54.9556C342.105 54.4669 342.406 53.3706 341.91 52.5188C341.582 51.9532 340.974 51.611 340.318 51.625ZM284.549 51.625C283.942 51.6599 283.39 51.9951 283.09 52.5188C282.846 52.9307 282.783 53.4195 282.908 53.8733C283.034 54.3342 283.334 54.7252 283.739 54.9626C284.598 55.4584 285.687 55.1581 286.183 54.3063C286.679 53.4544 286.386 52.3582 285.527 51.8694C285.234 51.6948 284.892 51.611 284.549 51.625ZM312.5 55.2C304.624 55.2 298.2 61.6238 298.2 69.5C298.2 77.3762 304.624 83.8 312.5 83.8C320.376 83.8 326.8 77.3762 326.8 69.5C326.8 61.6238 320.376 55.2 312.5 55.2ZM312.5 58.775C318.442 58.775 323.225 63.558 323.225 69.5C323.225 75.442 318.442 80.225 312.5 80.225C306.558 80.225 301.775 75.442 301.775 69.5C301.775 63.558 306.558 58.775 312.5 58.775ZM281.407 59.3895C280.597 59.3964 279.899 59.9341 279.69 60.7091C279.438 61.6657 280.004 62.6433 280.96 62.9016C281.91 63.16 282.888 62.5944 283.146 61.6378C283.404 60.6812 282.839 59.7037 281.882 59.4453C281.728 59.4034 281.568 59.3825 281.407 59.3895ZM343.593 59.3895C343.551 59.3825 343.509 59.3895 343.467 59.3895C343.348 59.3964 343.23 59.4174 343.111 59.4453C342.161 59.7037 341.596 60.6812 341.854 61.6378C342.105 62.5944 343.083 63.16 344.04 62.9016C344.996 62.6433 345.562 61.6657 345.303 60.7091C345.094 59.9341 344.396 59.3964 343.593 59.3895ZM280.325 67.7125C279.34 67.7125 278.537 68.5155 278.537 69.5C278.537 70.4845 279.34 71.2875 280.325 71.2875C281.31 71.2875 282.112 70.4845 282.112 69.5C282.112 68.5155 281.31 67.7125 280.325 67.7125ZM344.675 67.7125C343.69 67.7125 342.887 68.5155 342.887 69.5C342.887 70.4845 343.69 71.2875 344.675 71.2875C345.66 71.2875 346.462 70.4845 346.462 69.5C346.462 68.5155 345.66 67.7125 344.675 67.7125ZM281.491 76.0425C281.31 76.0356 281.128 76.0565 280.96 76.0984C280.004 76.3567 279.438 77.3343 279.69 78.2909C279.948 79.2475 280.925 79.813 281.882 79.5547C282.839 79.2963 283.404 78.3188 283.146 77.3692C282.943 76.6081 282.273 76.0705 281.491 76.0425ZM343.558 76.0425C342.755 76.0495 342.057 76.5941 341.854 77.3692C341.728 77.83 341.791 78.3188 342.029 78.7238C342.266 79.1357 342.657 79.436 343.118 79.5547C344.075 79.813 345.052 79.2475 345.31 78.2979C345.562 77.3413 344.996 76.3637 344.04 76.1054C343.886 76.0635 343.725 76.0425 343.558 76.0425ZM284.598 83.8C284.298 83.807 284.005 83.8838 283.739 84.0374C282.888 84.5332 282.594 85.6224 283.09 86.4813C283.32 86.8862 283.711 87.1865 284.172 87.3122C284.633 87.4378 285.122 87.375 285.527 87.1306C285.939 86.9002 286.239 86.5092 286.365 86.0483C286.483 85.5875 286.421 85.0987 286.183 84.6938C285.855 84.1212 285.248 83.7791 284.598 83.8ZM340.283 83.807C339.669 83.8349 339.117 84.1701 338.81 84.6938C338.572 85.1057 338.51 85.5945 338.635 86.0553C338.761 86.5162 339.061 86.9072 339.473 87.1446C340.325 87.6334 341.414 87.3401 341.91 86.4813C342.406 85.6294 342.112 84.5401 341.261 84.0444C340.96 83.8698 340.618 83.793 340.283 83.807ZM289.772 90.4682C289.29 90.4612 288.823 90.6498 288.48 90.9849C287.789 91.6832 287.789 92.8213 288.48 93.5195C289.179 94.2108 290.317 94.2108 291.015 93.5195C291.706 92.8213 291.706 91.6832 291.015 90.9849C290.68 90.6567 290.24 90.4682 289.772 90.4682ZM335.277 90.4682C334.795 90.4543 334.327 90.6428 333.985 90.9849C333.287 91.6832 333.287 92.8213 333.985 93.5195C334.683 94.2108 335.814 94.2108 336.513 93.5195C337.211 92.8213 337.211 91.6832 336.513 90.9849C336.184 90.6567 335.744 90.4752 335.277 90.4682ZM328.539 95.5794C328.245 95.5794 327.952 95.6631 327.694 95.8098C326.835 96.3055 326.542 97.4018 327.037 98.2536C327.533 99.1055 328.622 99.4057 329.481 98.91C329.886 98.6726 330.186 98.2816 330.312 97.8207C330.438 97.3669 330.375 96.8781 330.131 96.4661C329.809 95.9005 329.195 95.5584 328.539 95.5794ZM296.329 95.5794C295.714 95.6073 295.163 95.9424 294.862 96.4731C294.367 97.325 294.66 98.4212 295.519 98.91C295.924 99.1544 296.412 99.2172 296.873 99.0915C297.334 98.9728 297.725 98.6726 297.956 98.2606C298.2 97.8486 298.263 97.3599 298.137 96.906C298.011 96.4452 297.711 96.0542 297.306 95.8168C297.006 95.6422 296.664 95.5654 296.329 95.5794ZM304.156 98.7982C303.353 98.8052 302.655 99.3429 302.445 100.118C302.187 101.075 302.753 102.052 303.709 102.31C304.666 102.569 305.643 102.003 305.902 101.047C306.02 100.586 305.957 100.097 305.72 99.685C305.483 99.28 305.092 98.9798 304.631 98.8541C304.477 98.8122 304.317 98.7913 304.156 98.7982ZM320.9 98.7982C320.718 98.7913 320.537 98.8052 320.369 98.8541C319.413 99.1125 318.847 100.09 319.098 101.04C319.357 101.996 320.334 102.562 321.291 102.31C322.247 102.052 322.813 101.075 322.555 100.118C322.352 99.3638 321.682 98.8262 320.9 98.7982ZM312.5 99.8875C311.515 99.8875 310.712 100.69 310.712 101.675C310.712 102.66 311.515 103.463 312.5 103.463C313.485 103.463 314.287 102.66 314.287 101.675C314.287 100.69 313.485 99.8875 312.5 99.8875Z" fill="#4A4A4A"/>
   <path d="M64.9295 8.72501L60.8658 18.8705C54.4629 20.2111 48.5069 22.7178 43.2072 26.1811L33.1735 21.8799L23.8799 31.1735L28.1811 41.2072C24.7108 46.5069 22.2111 52.4629 20.8705 58.8658L10.725 62.9295V76.0705L20.8705 80.1342C22.2111 86.5371 24.7178 92.4931 28.1811 97.7928L23.8799 107.827L33.1735 117.12L43.2072 112.819C48.5069 116.289 54.4629 118.789 60.8658 120.13L64.9295 130.275H78.0705L82.1342 120.13C88.5371 118.789 94.4931 116.282 99.7928 112.819L109.827 117.12L119.12 107.827L114.819 97.7928C118.289 92.4931 120.789 86.5371 122.13 80.1342L132.275 76.0705V62.9295L122.13 58.8658C120.789 52.4629 118.282 46.5069 114.819 41.2072L119.12 31.1735L109.827 21.8799L99.7928 26.1811C94.4931 22.7108 88.5371 20.2111 82.1342 18.8705L78.0705 8.72501H64.9295ZM67.3455 12.3H75.6545L79.4879 21.9008L80.4585 22.0754C87.1197 23.3322 93.3061 25.9437 98.7035 29.6374L99.5135 30.182L109.01 26.1182L114.882 31.9904L110.811 41.4865L111.363 42.2965C115.056 47.6939 117.668 53.8733 118.918 60.5416L119.099 61.5121L128.7 65.3455V73.6545L119.099 77.4879L118.925 78.4585C117.668 85.1197 115.056 91.3061 111.363 96.7035L110.818 97.5135L114.882 107.01L109.01 112.882L99.5135 108.811L98.7035 109.363C93.3061 113.056 87.1267 115.668 80.4585 116.918L79.4879 117.099L75.6545 126.7H67.3455L63.5121 117.099L62.5416 116.925C55.8803 115.668 49.6939 113.056 44.2965 109.363L43.4865 108.818L33.9904 112.882L28.1182 107.01L32.189 97.5135L31.6374 96.7035C27.9437 91.3061 25.3322 85.1267 24.0824 78.4585L23.9008 77.4879L14.3 73.6545V65.3455L23.9008 61.5121L24.0754 60.5416C25.3322 53.8803 27.9437 47.6939 31.6374 42.2965L32.182 41.4865L28.1182 31.9904L33.9904 26.1182L43.4865 30.189L44.2965 29.6374C49.6939 25.9437 55.8733 23.3322 62.5416 22.0824L63.5121 21.9008L67.3455 12.3ZM71.5 35.5375C70.5155 35.5375 69.7125 36.3405 69.7125 37.325C69.7125 38.3095 70.5155 39.1125 71.5 39.1125C72.4845 39.1125 73.2875 38.3095 73.2875 37.325C73.2875 36.3405 72.4845 35.5375 71.5 35.5375ZM63.1839 36.6337C63.142 36.6337 63.1002 36.6337 63.0652 36.6337C62.9396 36.6477 62.8278 36.6617 62.7091 36.6966C61.7525 36.9549 61.187 37.9325 61.4453 38.8891C61.7037 39.8387 62.6812 40.4043 63.6308 40.1459C64.5874 39.8945 65.153 38.917 64.9016 37.9604C64.6921 37.1854 63.9939 36.6407 63.1839 36.6337ZM79.8161 36.6337C79.0131 36.6407 78.3079 37.1854 78.0984 37.9604C77.847 38.917 78.4126 39.8945 79.3692 40.1459C80.3188 40.4043 81.2963 39.8387 81.5547 38.8891C81.813 37.9325 81.2475 36.9549 80.2909 36.6966C80.1373 36.6547 79.9767 36.6337 79.8161 36.6337ZM55.3706 39.8457C55.0704 39.8526 54.7771 39.9364 54.5188 40.09C54.1068 40.3205 53.8066 40.7115 53.6809 41.1723C53.5622 41.6332 53.625 42.1219 53.8624 42.5269C54.0998 42.9389 54.4908 43.2391 54.9517 43.3648C55.4055 43.4835 55.8943 43.4207 56.3063 43.1833C57.1581 42.6875 57.4514 41.5982 56.9556 40.7394C56.6344 40.1738 56.027 39.8317 55.3706 39.8457ZM87.5037 39.8526C86.8962 39.8806 86.3446 40.2157 86.0374 40.7394C85.8 41.1514 85.7372 41.6401 85.8559 42.101C85.9816 42.5618 86.2818 42.9528 86.6938 43.1902C87.5456 43.679 88.6419 43.3857 89.1306 42.5269C89.6264 41.6751 89.3331 40.5858 88.4813 40.09C88.181 39.9155 87.8459 39.8387 87.5037 39.8526ZM48.7722 44.9568C48.2904 44.9568 47.8226 45.1453 47.4805 45.4805C46.7892 46.1787 46.7892 47.3169 47.4805 48.0151C48.1787 48.7064 49.3169 48.7064 50.0151 48.0151C50.7064 47.3169 50.7064 46.1787 50.0151 45.4805C49.6799 45.1523 49.24 44.9638 48.7722 44.9568ZM94.2767 44.9568C93.7949 44.9498 93.3271 45.1383 92.9849 45.4805C92.2867 46.1787 92.2867 47.3169 92.9849 48.0151C93.6832 48.7064 94.8143 48.7064 95.5126 48.0151C96.2108 47.3169 96.2108 46.1787 95.5126 45.4805C95.1844 45.1523 94.7445 44.9708 94.2767 44.9568ZM99.318 51.625C99.0177 51.632 98.7245 51.7158 98.4661 51.8624C98.0542 52.0998 97.7539 52.4908 97.6352 52.9517C97.5095 53.4055 97.5724 53.8943 97.8098 54.3063C98.3055 55.1581 99.4018 55.4514 100.254 54.9556C101.105 54.4669 101.406 53.3706 100.91 52.5188C100.582 51.9532 99.9743 51.611 99.318 51.625ZM43.5494 51.625C42.9419 51.6599 42.3903 51.9951 42.09 52.5188C41.8457 52.9307 41.7828 53.4195 41.9085 53.8733C42.0342 54.3342 42.3344 54.7252 42.7394 54.9626C43.5982 55.4584 44.6875 55.1581 45.1833 54.3063C45.679 53.4544 45.3857 52.3582 44.5269 51.8694C44.2337 51.6948 43.8915 51.611 43.5494 51.625ZM71.5 55.2C63.6238 55.2 57.2 61.6238 57.2 69.5C57.2 77.3762 63.6238 83.8 71.5 83.8C79.3762 83.8 85.8 77.3762 85.8 69.5C85.8 61.6238 79.3762 55.2 71.5 55.2ZM71.5 58.775C77.442 58.775 82.225 63.558 82.225 69.5C82.225 75.442 77.442 80.225 71.5 80.225C65.558 80.225 60.775 75.442 60.775 69.5C60.775 63.558 65.558 58.775 71.5 58.775ZM40.4073 59.3895C39.5973 59.3964 38.8991 59.9341 38.6896 60.7091C38.4382 61.6657 39.0038 62.6433 39.9604 62.9016C40.91 63.16 41.8876 62.5944 42.1459 61.6378C42.4043 60.6812 41.8387 59.7037 40.8821 59.4453C40.7285 59.4034 40.5679 59.3825 40.4073 59.3895ZM102.593 59.3895C102.551 59.3825 102.509 59.3895 102.467 59.3895C102.348 59.3964 102.23 59.4174 102.111 59.4453C101.161 59.7037 100.596 60.6812 100.854 61.6378C101.105 62.5944 102.083 63.16 103.04 62.9016C103.996 62.6433 104.562 61.6657 104.303 60.7091C104.094 59.9341 103.396 59.3964 102.593 59.3895ZM39.325 67.7125C38.3405 67.7125 37.5375 68.5155 37.5375 69.5C37.5375 70.4845 38.3405 71.2875 39.325 71.2875C40.3095 71.2875 41.1125 70.4845 41.1125 69.5C41.1125 68.5155 40.3095 67.7125 39.325 67.7125ZM103.675 67.7125C102.69 67.7125 101.888 68.5155 101.888 69.5C101.888 70.4845 102.69 71.2875 103.675 71.2875C104.66 71.2875 105.463 70.4845 105.463 69.5C105.463 68.5155 104.66 67.7125 103.675 67.7125ZM40.4911 76.0425C40.3095 76.0356 40.128 76.0565 39.9604 76.0984C39.0038 76.3567 38.4382 77.3343 38.6896 78.2909C38.948 79.2475 39.9255 79.813 40.8821 79.5547C41.8387 79.2963 42.4043 78.3188 42.1459 77.3692C41.9434 76.6081 41.2731 76.0705 40.4911 76.0425ZM102.558 76.0425C101.755 76.0495 101.057 76.5941 100.854 77.3692C100.728 77.83 100.791 78.3188 101.029 78.7238C101.266 79.1357 101.657 79.436 102.118 79.5547C103.075 79.813 104.052 79.2475 104.31 78.2979C104.562 77.3413 103.996 76.3637 103.04 76.1054C102.886 76.0635 102.725 76.0425 102.558 76.0425ZM43.5982 83.8C43.298 83.807 43.0047 83.8838 42.7394 84.0374C41.8876 84.5332 41.5943 85.6224 42.09 86.4813C42.3205 86.8862 42.7115 87.1865 43.1723 87.3122C43.6332 87.4378 44.1219 87.375 44.5269 87.1306C44.9389 86.9002 45.2391 86.5092 45.3648 86.0483C45.4835 85.5875 45.4207 85.0987 45.1833 84.6938C44.8551 84.1212 44.2476 83.7791 43.5982 83.8ZM99.2831 83.807C98.6686 83.8349 98.117 84.1701 97.8098 84.6938C97.5724 85.1057 97.5095 85.5945 97.6352 86.0553C97.7609 86.5162 98.0611 86.9072 98.4731 87.1446C99.325 87.6334 100.414 87.3401 100.91 86.4813C101.406 85.6294 101.112 84.5401 100.261 84.0444C99.9604 83.8698 99.6182 83.793 99.2831 83.807ZM48.7722 90.4682C48.2904 90.4612 47.8226 90.6498 47.4805 90.9849C46.7892 91.6832 46.7892 92.8213 47.4805 93.5195C48.1787 94.2108 49.3169 94.2108 50.0151 93.5195C50.7064 92.8213 50.7064 91.6832 50.0151 90.9849C49.6799 90.6567 49.24 90.4682 48.7722 90.4682ZM94.2767 90.4682C93.7949 90.4543 93.3271 90.6428 92.9849 90.9849C92.2867 91.6832 92.2867 92.8213 92.9849 93.5195C93.6832 94.2108 94.8143 94.2108 95.5126 93.5195C96.2108 92.8213 96.2108 91.6832 95.5126 90.9849C95.1844 90.6567 94.7445 90.4752 94.2767 90.4682ZM87.5386 95.5794C87.2454 95.5794 86.9521 95.6631 86.6938 95.8098C85.8349 96.3055 85.5417 97.4018 86.0374 98.2536C86.5332 99.1055 87.6224 99.4057 88.4813 98.91C88.8862 98.6726 89.1865 98.2816 89.3122 97.8207C89.4378 97.3669 89.375 96.8781 89.1306 96.4661C88.8094 95.9005 88.195 95.5584 87.5386 95.5794ZM55.3287 95.5794C54.7143 95.6073 54.1627 95.9424 53.8624 96.4731C53.3667 97.325 53.6599 98.4212 54.5188 98.91C54.9237 99.1544 55.4125 99.2172 55.8733 99.0915C56.3342 98.9728 56.7252 98.6726 56.9556 98.2606C57.2 97.8486 57.2628 97.3599 57.1372 96.906C57.0115 96.4452 56.7112 96.0542 56.3063 95.8168C56.006 95.6422 55.6639 95.5654 55.3287 95.5794ZM63.156 98.7982C62.353 98.8052 61.6548 99.3429 61.4453 100.118C61.187 101.075 61.7525 102.052 62.7091 102.31C63.6657 102.569 64.6433 102.003 64.9016 101.047C65.0203 100.586 64.9575 100.097 64.7201 99.685C64.4827 99.28 64.0917 98.9798 63.6308 98.8541C63.4772 98.8122 63.3166 98.7913 63.156 98.7982ZM79.8999 98.7982C79.7183 98.7913 79.5368 98.8052 79.3692 98.8541C78.4126 99.1125 77.847 100.09 78.0984 101.04C78.3567 101.996 79.3343 102.562 80.2909 102.31C81.2475 102.052 81.813 101.075 81.5547 100.118C81.3522 99.3638 80.6819 98.8262 79.8999 98.7982ZM71.5 99.8875C70.5155 99.8875 69.7125 100.69 69.7125 101.675C69.7125 102.66 70.5155 103.463 71.5 103.463C72.4845 103.463 73.2875 102.66 73.2875 101.675C73.2875 100.69 72.4845 99.8875 71.5 99.8875Z" fill="#4A4A4A"/>
   <path d="M184.746 34.025L180.568 44.4542C173.986 45.8324 167.864 48.4092 162.416 51.9693L152.101 47.5478L142.548 57.1014L146.969 67.4158C143.402 72.8637 140.832 78.9863 139.454 85.5683L129.025 89.7457V103.254L139.454 107.432C140.832 114.014 143.409 120.136 146.969 125.584L142.548 135.899L152.101 145.452L162.416 141.031C167.864 144.598 173.986 147.168 180.568 148.546L184.746 158.975H198.254L202.432 148.546C209.014 147.168 215.136 144.591 220.584 141.031L230.899 145.452L240.452 135.899L236.031 125.584C239.598 120.136 242.168 114.014 243.546 107.432L253.975 103.254V89.7457L243.546 85.5683C242.168 78.9863 239.591 72.8637 236.031 67.4158L240.452 57.1014L230.899 47.5478L220.584 51.9693C215.136 48.402 209.014 45.8324 202.432 44.4542L198.254 34.025H184.746ZM187.229 37.7H195.771L199.711 47.5694L200.709 47.7488C207.557 49.0408 213.916 51.7253 219.464 55.5223L220.297 56.0822L230.059 51.9047L236.095 57.9412L231.911 67.7029L232.478 68.5355C236.275 74.0839 238.959 80.4362 240.244 87.291L240.431 88.2887L250.3 92.2292V100.771L240.431 104.711L240.251 105.709C238.959 112.557 236.275 118.916 232.478 124.464L231.918 125.297L236.095 135.059L230.059 141.095L220.297 136.911L219.464 137.478C213.916 141.275 207.564 143.959 200.709 145.244L199.711 145.431L195.771 155.3H187.229L183.289 145.431L182.291 145.251C175.443 143.959 169.084 141.275 163.536 137.478L162.703 136.918L152.941 141.095L146.905 135.059L151.089 125.297L150.522 124.464C146.725 118.916 144.041 112.564 142.756 105.709L142.569 104.711L132.7 100.771V92.2292L142.569 88.2887L142.749 87.291C144.041 80.4434 146.725 74.0839 150.522 68.5355L151.082 67.7029L146.905 57.9412L152.941 51.9047L162.703 56.0894L163.536 55.5223C169.084 51.7253 175.436 49.0408 182.291 47.756L183.289 47.5694L187.229 37.7ZM191.5 61.5875C190.488 61.5875 189.662 62.4129 189.662 63.425C189.662 64.4371 190.488 65.2625 191.5 65.2625C192.512 65.2625 193.337 64.4371 193.337 63.425C193.337 62.4129 192.512 61.5875 191.5 61.5875ZM182.951 62.7144C182.908 62.7144 182.865 62.7144 182.829 62.7144C182.7 62.7288 182.585 62.7431 182.463 62.779C181.48 63.0446 180.898 64.0495 181.164 65.0328C181.43 66.009 182.435 66.5904 183.411 66.3248C184.394 66.0664 184.975 65.0615 184.717 64.0782C184.502 63.2814 183.784 62.7216 182.951 62.7144ZM200.049 62.7144C199.223 62.7216 198.498 63.2814 198.283 64.0782C198.025 65.0615 198.606 66.0664 199.589 66.3248C200.565 66.5904 201.57 66.009 201.836 65.0328C202.102 64.0495 201.52 63.0446 200.537 62.779C200.379 62.7359 200.214 62.7144 200.049 62.7144ZM174.919 66.0162C174.611 66.0233 174.309 66.1095 174.044 66.2674C173.62 66.5042 173.312 66.9062 173.182 67.3799C173.06 67.8537 173.125 68.3561 173.369 68.7724C173.613 69.1959 174.015 69.5045 174.489 69.6337C174.955 69.7558 175.458 69.6912 175.881 69.4471C176.757 68.9375 177.058 67.8178 176.549 66.9349C176.219 66.3535 175.594 66.0018 174.919 66.0162ZM207.951 66.0233C207.327 66.052 206.76 66.3966 206.444 66.9349C206.2 67.3584 206.135 67.8608 206.257 68.3346C206.387 68.8083 206.695 69.2103 207.119 69.4543C207.994 69.9567 209.121 69.6553 209.624 68.7724C210.133 67.8967 209.832 66.777 208.956 66.2674C208.648 66.0879 208.303 66.009 207.951 66.0233ZM168.136 71.2703C167.641 71.2703 167.16 71.4641 166.809 71.8086C166.098 72.5264 166.098 73.6963 166.809 74.4141C167.526 75.1247 168.696 75.1247 169.414 74.4141C170.125 73.6963 170.125 72.5264 169.414 71.8086C169.07 71.4712 168.617 71.2774 168.136 71.2703ZM214.914 71.2703C214.419 71.2631 213.938 71.4569 213.586 71.8086C212.868 72.5264 212.868 73.6963 213.586 74.4141C214.304 75.1247 215.466 75.1247 216.184 74.4141C216.902 73.6963 216.902 72.5264 216.184 71.8086C215.847 71.4712 215.395 71.2846 214.914 71.2703ZM220.096 78.125C219.787 78.1322 219.486 78.2183 219.22 78.369C218.797 78.6131 218.488 79.015 218.366 79.4888C218.237 79.9553 218.302 80.4578 218.546 80.8812C219.055 81.7569 220.182 82.0584 221.058 81.5488C221.934 81.0463 222.242 79.9194 221.733 79.0437C221.395 78.4624 220.771 78.1106 220.096 78.125ZM162.768 78.125C162.143 78.1609 161.576 78.5054 161.267 79.0437C161.016 79.4672 160.952 79.9697 161.081 80.4362C161.21 80.91 161.519 81.3119 161.935 81.556C162.818 82.0656 163.937 81.7569 164.447 80.8812C164.957 80.0056 164.655 78.8787 163.772 78.3762C163.471 78.1968 163.119 78.1106 162.768 78.125ZM191.5 81.8C183.404 81.8 176.8 88.4035 176.8 96.5C176.8 104.596 183.404 111.2 191.5 111.2C199.596 111.2 206.2 104.596 206.2 96.5C206.2 88.4035 199.596 81.8 191.5 81.8ZM191.5 85.475C197.608 85.475 202.525 90.3917 202.525 96.5C202.525 102.608 197.608 107.525 191.5 107.525C185.392 107.525 180.475 102.608 180.475 96.5C180.475 90.3917 185.392 85.475 191.5 85.475ZM159.538 86.1066C158.705 86.1138 157.987 86.6665 157.772 87.4632C157.513 88.4466 158.095 89.4515 159.078 89.717C160.054 89.9826 161.059 89.4012 161.325 88.4179C161.59 87.4345 161.009 86.4296 160.026 86.1641C159.868 86.121 159.703 86.0995 159.538 86.1066ZM223.462 86.1066C223.419 86.0995 223.376 86.1066 223.333 86.1066C223.211 86.1138 223.089 86.1353 222.967 86.1641C221.991 86.4296 221.41 87.4345 221.675 88.4179C221.934 89.4012 222.938 89.9826 223.922 89.717C224.905 89.4515 225.487 88.4466 225.221 87.4632C225.006 86.6665 224.288 86.1138 223.462 86.1066ZM158.425 94.6625C157.413 94.6625 156.587 95.4879 156.587 96.5C156.587 97.5121 157.413 98.3375 158.425 98.3375C159.437 98.3375 160.262 97.5121 160.262 96.5C160.262 95.4879 159.437 94.6625 158.425 94.6625ZM224.575 94.6625C223.563 94.6625 222.737 95.4879 222.737 96.5C222.737 97.5121 223.563 98.3375 224.575 98.3375C225.587 98.3375 226.412 97.5121 226.412 96.5C226.412 95.4879 225.587 94.6625 224.575 94.6625ZM159.624 103.226C159.437 103.218 159.25 103.24 159.078 103.283C158.095 103.549 157.513 104.553 157.772 105.537C158.037 106.52 159.042 107.102 160.026 106.836C161.009 106.57 161.59 105.565 161.325 104.589C161.117 103.807 160.428 103.254 159.624 103.226ZM223.427 103.226C222.601 103.233 221.883 103.793 221.675 104.589C221.546 105.063 221.611 105.565 221.855 105.982C222.099 106.405 222.501 106.714 222.974 106.836C223.958 107.102 224.963 106.52 225.228 105.544C225.487 104.561 224.905 103.556 223.922 103.29C223.764 103.247 223.599 103.226 223.427 103.226ZM162.818 111.2C162.509 111.207 162.208 111.286 161.935 111.444C161.059 111.954 160.758 113.073 161.267 113.956C161.504 114.373 161.906 114.681 162.38 114.81C162.854 114.94 163.356 114.875 163.772 114.624C164.196 114.387 164.505 113.985 164.634 113.511C164.756 113.037 164.691 112.535 164.447 112.119C164.11 111.53 163.485 111.178 162.818 111.2ZM220.06 111.207C219.429 111.236 218.862 111.58 218.546 112.119C218.302 112.542 218.237 113.045 218.366 113.518C218.495 113.992 218.804 114.394 219.228 114.638C220.103 115.141 221.223 114.839 221.733 113.956C222.242 113.081 221.941 111.961 221.065 111.451C220.756 111.272 220.405 111.193 220.06 111.207ZM168.136 118.055C167.641 118.048 167.16 118.241 166.809 118.586C166.098 119.304 166.098 120.474 166.809 121.191C167.526 121.902 168.696 121.902 169.414 121.191C170.125 120.474 170.125 119.304 169.414 118.586C169.07 118.249 168.617 118.055 168.136 118.055ZM214.914 118.055C214.419 118.04 213.938 118.234 213.586 118.586C212.868 119.304 212.868 120.474 213.586 121.191C214.304 121.902 215.466 121.902 216.184 121.191C216.902 120.474 216.902 119.304 216.184 118.586C215.847 118.249 215.395 118.062 214.914 118.055ZM207.987 123.309C207.686 123.309 207.384 123.395 207.119 123.546C206.236 124.055 205.934 125.182 206.444 126.058C206.954 126.934 208.073 127.242 208.956 126.733C209.373 126.489 209.681 126.087 209.81 125.613C209.94 125.146 209.875 124.644 209.624 124.22C209.294 123.639 208.662 123.287 207.987 123.309ZM174.876 123.309C174.245 123.338 173.678 123.682 173.369 124.228C172.859 125.103 173.161 126.23 174.044 126.733C174.46 126.984 174.962 127.048 175.436 126.919C175.91 126.797 176.312 126.489 176.549 126.065C176.8 125.642 176.865 125.139 176.735 124.673C176.606 124.199 176.298 123.797 175.881 123.553C175.573 123.373 175.221 123.294 174.876 123.309ZM182.923 126.618C182.097 126.625 181.379 127.178 181.164 127.974C180.898 128.958 181.48 129.963 182.463 130.228C183.447 130.494 184.451 129.912 184.717 128.929C184.839 128.455 184.774 127.953 184.53 127.529C184.286 127.113 183.884 126.804 183.411 126.675C183.253 126.632 183.088 126.611 182.923 126.618ZM200.135 126.618C199.948 126.611 199.762 126.625 199.589 126.675C198.606 126.941 198.025 127.946 198.283 128.922C198.549 129.905 199.553 130.487 200.537 130.228C201.52 129.963 202.102 128.958 201.836 127.974C201.628 127.199 200.939 126.646 200.135 126.618ZM191.5 127.737C190.488 127.737 189.662 128.563 189.662 129.575C189.662 130.587 190.488 131.412 191.5 131.412C192.512 131.412 193.337 130.587 193.337 129.575C193.337 128.563 192.512 127.737 191.5 127.737Z" fill="#4A4A4A"/>
</svg>
