<?xml version="1.0" encoding="utf-8"?>
<svg xmlns="http://www.w3.org/2000/svg" viewBox="0 0 64 64" >
  <path d="M22 9L20 15L7.5039062 16.5625C5.5019063 16.8125 4 18.51425 4 20.53125L4
  50C4 52.209 5.791 54 8 54L56 54C58.209 54 60 52.209 60 50L60 20.53125C60
  18.51425 58.498094 16.8125 56.496094 16.5625L44 15L42 9L22 9 z M 7 11L7
  14L15 14L15 11L7 11 z M 32 22C38.627 22 44 27.373 44 34C44 40.627 38.627 46 32
  46C25.373 46 20 40.627 20 34C20 27.373 25.373 22 32 22 z M 48 22L55 22L55 26L50
   26C48.895 26 48 25.105 48 24L48 22 z"  />
</svg>