<?xml version="1.0" encoding="utf-8"?>
<svg xmlns="http://www.w3.org/2000/svg" viewBox="0 0 64 64" >
  <path d="M32 6C17.64 6 6 17.64 6 32C6 37.371799 7.6291429 42.362254 10.419922 46.505859L8 58L20.568359 55.353516C24.019088 57.045877 27.897143 58 32 58C46.36 58 58 46.36 58 32C58 17.64 46.36 6 32 6 z M 20 29C21.66 29 23 30.34 23 32C23 33.66 21.66 35 20 35C18.34 35 17 33.66 17 32C17 30.34 18.34 29 20 29 z M 32 29C33.66 29 35 30.34 35 32C35 33.66 33.66 35 32 35C30.34 35 29 33.66 29 32C29 30.34 30.34 29 32 29 z M 44 29C45.66 29 47 30.34 47 32C47 33.66 45.66 35 44 35C42.34 35 41 33.66 41 32C41 30.34 42.34 29 44 29 z" fill="#FFFFFF" />
</svg>