<?xml version="1.0" encoding="utf-8"?>
<svg xmlns="http://www.w3.org/2000/svg" viewBox="0 0 64 64" >
  <path d="M32 5C17.112099 5 5 17.112099 5 32C5 46.887901 17.112099 59 32 59C46.887901 59 59 46.887901 59 32C59 17.112099 46.887901 5 32 5 z M 32 9C44.726099 9 55 19.273901 55 32C55 44.726099 44.726099 55 32 55C19.273901 55 9 44.726099 9 32C9 19.273901 19.273901 9 32 9 z M 23 24 A 4 4 0 0 0 23 32 A 4 4 0 0 0 23 24 z M 41 24 A 4 4 0 0 0 41 32 A 4 4 0 0 0 41 24 z M 17.908203 36.15625L16.03125 36.84375C16.82125 40.24575 18.931453 43.391266 21.814453 45.572266C23.244453 46.685266 24.888328 47.519188 26.611328 48.117188C28.344328 48.695188 30.175 48.978 32 49C35.658 48.994 39.312547 47.776313 42.185547 45.570312C45.070547 43.389313 47.16375 40.23675 47.96875 36.84375L46.091797 36.15625C44.641797 38.86525 42.605484 41.11725 40.146484 42.65625C37.685484 44.17525 34.862 45.024 32 45C29.142 45.018 26.310516 44.18525 23.853516 42.65625C21.396516 41.11625 19.342203 38.87525 17.908203 36.15625 z" />
</svg>