<?xml version="1.0" encoding="utf-8"?>
<svg xmlns="http://www.w3.org/2000/svg" viewBox="0 0 64 64" >
  <path d="M5 4L5 14L32.003906 35.626953L59 14L59 4L32 19.720703L5 4 z M 5 27L5 37L32.003906 58.626953L34 57C31.915 54.298 31 50.677 31 47C31 45.442 31.233438 43.939625 31.648438 42.515625L5 27 z M 59 27L51.158203 31.564453C54.240203 32.393453 58 36 59 38L59 27 z M 47 34C39.82 34 34 39.82 34 47C34 54.18 39.82 60 47 60C54.18 60 60 54.18 60 47C60 39.82 54.18 34 47 34 z M 43 39L45 39L44.75 43L49.75 43L50 39L52 39L51.75 43L55 43L55 45L51.625 45L51.375 49L55 49L55 51L51.25 51L51 55L49 55L49.25 51L44.25 51L44 55L42 55L42.25 51L39 51L39 49L42.375 49L42.625 45L39 45L39 43L42.75 43L43 39 z M 44.625 45L44.375 49L49.375 49L49.625 45L44.625 45 z" />
</svg>