<?xml version="1.0" encoding="utf-8"?>
<svg xmlns="http://www.w3.org/2000/svg" viewBox="0 0 64 64" >
  <path d="M19 4L19 25L28 25L28 32L36.166016 25L47 25L47 4L19 4 z M 38.679688 9.3808594L40.650391 11.349609L32 20L26 14.320312L27.669922 12.380859L32 15L38.679688 9.3808594 z M 16 29.042969C12.686 29.042969 10 31.728969 10 35.042969L10 35.900391C10 39.214391 12.571 42.757812 16 42.757812C19.429 42.757812 22 39.214391 22 35.900391L22 35.042969C22 31.728969 19.314 29.042969 16 29.042969 z M 48 29.042969C44.686 29.042969 42 31.728969 42 35.042969L42 35.900391C42 39.214391 44.571 42.757812 48 42.757812C51.429 42.757812 54 39.214391 54 35.900391L54 35.042969C54 31.728969 51.314 29.042969 48 29.042969 z M 15.998047 47C11.629047 47 7.7982031 48.030047 5.6582031 48.748047C4.5502031 49.120047 3.7308594 50.051219 3.5058594 51.199219L3.0175781 53.695312C6.0485781 57.530312 10.729094 60 15.996094 60C21.265094 60 25.948516 57.528406 28.978516 53.691406L28.492188 51.201172C28.268187 50.056172 27.44975 49.122953 26.34375 48.751953C24.20475 48.032953 20.370047 47 15.998047 47 z M 48.001953 47C43.629953 47 39.797203 48.032 37.658203 48.75C36.552203 49.122 35.733766 50.054219 35.509766 51.199219L35.021484 53.691406C38.050484 57.529406 42.734906 60 48.003906 60C53.270906 60 57.952422 57.530313 60.982422 53.695312L60.494141 51.199219C60.269141 50.052219 59.449797 49.121047 58.341797 48.748047C56.201797 48.030047 52.370953 47 48.001953 47 z" fill="#FFFFFF" />
</svg>