<?xml version="1.0" encoding="utf-8"?>
<svg xmlns="http://www.w3.org/2000/svg" viewBox="0 0 64 64" >
  <path d="M32 2C25.925 2 21 6.925 21 13L21 29L43 29L43 13C43 6.925 38.075 2 32 2 z M 7 25L7 33L11 33L11 31L14 31L14 33C14 41.893731 20.505894 49.29155 29 50.728516L29 55L20 55L17 57L17 60L47 60L47 57L44 55L35 55L35 50.728516C43.494106 49.29155 50 41.893731 50 33L50 31L53 31L53 33L57 33L57 25L53 25L53 27L50 27L50 25L46 25L46 33C46 40.756241 39.756241 47 32 47C24.243759 47 18 40.756241 18 33L18 25L14 25L14 27L11 27L11 25L7 25 z M 21 31.107422L21 33C21 39.075 25.925 44 32 44C38.075 44 43 39.075 43 33L43 31.892578L34.939453 31.605469C34.659453 32.972469 33.45 34 32 34C30.478 34 29.234062 32.863531 29.039062 31.394531L21 31.107422 z"  />
</svg>