<?xml version="1.0" encoding="utf-8"?>
<svg xmlns="http://www.w3.org/2000/svg" viewBox="0 0 64 64" width="512" height="512">
  <path d="M32 1C25.643413 1 20.455032 5.9473721 20.041016 12.199219C18.688119 9.6991364 16.042038 8 13 8C8.582 8 5 11.582 5 16C5 17.459229 5.3974831 18.822119 6.0800781 20L6.0722656 20L9.1796875 25L32 25L33 25L33.076172 24.945312C39.198076 24.400061 44 19.263599 44 13C44 6.373 38.627 1 32 1 z M 32 10C33.657 10 35 11.343 35 13C35 14.657 33.657 16 32 16C30.343 16 29 14.657 29 13C29 11.343 30.343 10 32 10 z M 13 13C14.657 13 16 14.343 16 16C16 17.657 14.657 19 13 19C11.343 19 10 17.657 10 16C10 14.343 11.343 13 13 13 z M 9 27C7.895 27 7 27.895 7 29L7 53C7 54.105 7.895 55 9 55L44 55C45.105 55 46 54.105 46 53L46 29C46 27.895 45.105 27 44 27L9 27 z M 56 27L48 33L49 40.455078L56 45L59 45L59 27L56 27 z M 13 47C14.105 47 15 47.895 15 49C15 50.105 14.105 51 13 51C11.895 51 11 50.105 11 49C11 47.895 11.895 47 13 47 z" fill="#FFFFFF" />
</svg>